# xmcd
#
# Track frame offsets:
# 150
# 18125
# 35347
# 54407
# 71660
# 89607
# 103694
# 120649
# 137246
# 151683
# 170427
# 184301
# 199325
# 211863
#
# Disc length: 3078 seconds
#
#
# Revision: 0
# Processed by: cddbd v1.5.2PL0 Copyright (c) Steve Scherf et al.
# Submitted via: FreeRIP 2.942 
#
DISCID=bf0c040e
DTITLE=Matogrosso and Mathias - POPULARIDADE
DYEAR=1900
DGENRE=Country
TTITLE0=Na Hora do Adeus
TTITLE1=24 Horas de Amor
TTITLE2=Sábado
TTITLE3=Foi Pensando em voce
TTITLE4=De Igual pra Igual
TTITLE5=Cabelo Loiro
TTITLE6=Quando o Amor se Transforma em Poesia (Quando L´amore Diventa Poesia)
TTITLE7=Lembranças
TTITLE8=Objeto de Prazer
TTITLE9=Tributo a Um Caminhoneiro
TTITLE10=Morena Linda de Mato Grosso
TTITLE11=Crença de Peão
TTITLE12=Em Mulher Não se Bate
TTITLE13=Santa Maria do Brasil (Santa Maria de La Mer)
EXTD=
EXTT0=
EXTT1=
EXTT2=
EXTT3=
EXTT4=
EXTT5=
EXTT6=
EXTT7=
EXTT8=
EXTT9=
EXTT10=
EXTT11=
EXTT12=
EXTT13=
PLAYORDER=
